<svg xmlns="http://www.w3.org/2000/svg" viewBox="0 0 767.19 171.94"><defs><style>.cls-1,.cls-2,.cls-3{fill:#2c79be;stroke:#2c79be;stroke-miterlimit:10;}.cls-1{stroke-width:4px;}.cls-3{stroke-width:2px;}</style></defs><g id="Layer_2" data-name="Layer 2"><g id="Layer_1-2" data-name="Layer 1"><path class="cls-1" d="M61.25,61.25H2V2H61.25ZM6.82,56.42h49.6V6.82H6.82Z"></path><path class="cls-1" d="M137.14,61.25H77.9V2h59.24ZM82.72,56.42h49.6V6.82H82.72Z"></path><path class="cls-1" d="M61.25,137.14H2V77.9H61.25ZM6.82,132.32h49.6V82.72H6.82Z"></path><path class="cls-1" d="M137.14,137.14H77.9V77.9h59.24Zm-54.42-4.82h49.6V82.72H82.72Z"></path><path class="cls-1" d="M69.57,117.27a47.7,47.7,0,1,1,47.7-47.7A47.76,47.76,0,0,1,69.57,117.27Zm0-93a45.29,45.29,0,1,0,45.29,45.29A45.35,45.35,0,0,0,69.57,24.28Z"></path><path class="cls-2" d="M205.81,79q-.81,8.63-6.36,13.45t-14.76,4.82a21,21,0,0,1-11.34-3,19.92,19.92,0,0,1-7.56-8.67A31.18,31.18,0,0,1,163,72.46v-5A31.54,31.54,0,0,1,165.71,54a20.44,20.44,0,0,1,7.75-9,21.69,21.69,0,0,1,11.67-3.14q8.93,0,14.36,4.83t6.32,13.67h-9.32c-.44-3.87-1.57-6.67-3.38-8.38s-4.47-2.57-8-2.57a10.9,10.9,0,0,0-9.37,4.46q-3.28,4.46-3.35,13.09v4.78q0,8.73,3.12,13.33a10.39,10.39,0,0,0,9.16,4.59c3.67,0,6.44-.83,8.29-2.48s3-4.4,3.51-8.25Z"></path><path class="cls-2" d="M227.32,89h24.46V96.5H218V42.64h9.36Z"></path><path class="cls-2" d="M301.26,42.64v36q0,8.58-5.5,13.59t-14.63,5q-9.25,0-14.69-4.93T261,78.6v-36h9.33v36q0,5.4,2.73,8.25t8.07,2.85q10.8,0,10.8-11.39V42.64Z"></path><path class="cls-2" d="M343.19,82.63a6.5,6.5,0,0,0-2.5-5.47q-2.51-1.93-9-3.89a43.88,43.88,0,0,1-10.36-4.36Q314,64.27,314,56.85a13.13,13.13,0,0,1,5.31-10.73q5.31-4.21,13.78-4.22a23.25,23.25,0,0,1,10,2.07,16.4,16.4,0,0,1,6.92,5.9,15.13,15.13,0,0,1,2.52,8.49h-9.32a8.45,8.45,0,0,0-2.65-6.6c-1.76-1.59-4.29-2.39-7.57-2.39a11.46,11.46,0,0,0-7.12,2,6.54,6.54,0,0,0-2.53,5.48,5.9,5.9,0,0,0,2.74,4.94q2.73,2,9,3.85a41.22,41.22,0,0,1,10.1,4.25,16,16,0,0,1,5.59,5.48,14.27,14.27,0,0,1,1.78,7.23,12.8,12.8,0,0,1-5.17,10.71q-5.16,4-14,4a26.37,26.37,0,0,1-10.75-2.16,18.12,18.12,0,0,1-7.62-6,14.91,14.91,0,0,1-2.72-8.88h9.36a8.72,8.72,0,0,0,3,7.1q3,2.52,8.69,2.52c3.26,0,5.7-.66,7.35-2A6.4,6.4,0,0,0,343.19,82.63Z"></path><path class="cls-2" d="M403.47,50.19h-16.8V96.5h-9.29V50.19H360.74V42.64h42.73Z"></path><path class="cls-2" d="M445.8,72.46H423.68V89h25.86V96.5H414.32V42.64h35v7.55h-25.6V65.06H445.8Z"></path><path class="cls-2" d="M480.74,75.79H470.31V96.5H461V42.64h18.94q9.33,0,14.39,4.18t5.07,12.11A15.13,15.13,0,0,1,496.74,68a16.47,16.47,0,0,1-7.27,5.61L501.57,96v.48h-10Zm-10.43-7.55h9.62c3.15,0,5.62-.79,7.4-2.39A8.33,8.33,0,0,0,490,59.32a8.86,8.86,0,0,0-2.46-6.69q-2.46-2.37-7.34-2.44h-9.88Z"></path><path class="cls-2" d="M531.26,83.15l12.2-40.51h12.36L537.06,96.5H525.48L506.8,42.64h12.32Z"></path><path class="cls-2" d="M576.48,96.5h-11.1V42.64h11.1Z"></path><path class="cls-2" d="M618.48,82.37a5.72,5.72,0,0,0-2.22-4.83q-2.22-1.68-8-3.55a56.17,56.17,0,0,1-9.14-3.68Q590,65.36,590,57a13,13,0,0,1,2.46-7.79,16.14,16.14,0,0,1,7.07-5.35,26.61,26.61,0,0,1,10.34-1.92A24.27,24.27,0,0,1,620.11,44a16.32,16.32,0,0,1,7,5.9,15.41,15.41,0,0,1,2.5,8.66h-11.1a7.29,7.29,0,0,0-2.33-5.76,9.63,9.63,0,0,0-6.55-2,10.26,10.26,0,0,0-6.32,1.72A5.42,5.42,0,0,0,601.06,57a5.21,5.21,0,0,0,2.64,4.41,30.26,30.26,0,0,0,7.79,3.33q9.46,2.85,13.8,7.06a14.07,14.07,0,0,1,4.33,10.51,13,13,0,0,1-5.29,11q-5.3,4-14.24,4A27.5,27.5,0,0,1,598.76,95,17.93,17.93,0,0,1,591,88.74a16,16,0,0,1-2.68-9.18h11.13q0,8.93,10.66,8.92a10.38,10.38,0,0,0,6.17-1.61A5.25,5.25,0,0,0,618.48,82.37Z"></path><path class="cls-2" d="M652.72,96.5h-11.1V42.64h11.1Z"></path><path class="cls-2" d="M711,70.79a32.59,32.59,0,0,1-2.81,13.95A21.19,21.19,0,0,1,700.18,94a23.81,23.81,0,0,1-23.95,0,21.31,21.31,0,0,1-8.14-9.2,31.55,31.55,0,0,1-2.93-13.74V68.43a32.4,32.4,0,0,1,2.87-14,21.34,21.34,0,0,1,8.1-9.28,23.73,23.73,0,0,1,23.94,0,21.34,21.34,0,0,1,8.1,9.28,32.31,32.31,0,0,1,2.87,14Zm-11.25-2.44q0-8.47-3-12.87a10.71,10.71,0,0,0-17.28-.06q-3,4.35-3.07,12.75v2.62q0,8.25,3,12.8a10.63,10.63,0,0,0,17.32.17q3-4.38,3-12.78Z"></path><path class="cls-2" d="M766.69,96.5H755.6L734,61.06V96.5h-11.1V42.64H734l21.64,35.52V42.64h11.06Z"></path><path class="cls-3" d="M287,163.93l9.29-22.2h1.79l9.29,22.2h-2.35L302.17,157h-10l-2.85,6.94Zm10.2-19.64-4.56,11h9Z"></path><path class="cls-3" d="M335.34,143.66h-7.91v20.27h-2.19V143.66h-7.91v-1.93h18Z"></path><path class="cls-3" d="M341,164.25a6.44,6.44,0,0,1-2.29-.39,5.32,5.32,0,0,1-1.76-1.08,4.88,4.88,0,0,1-1.14-1.6,4.46,4.46,0,0,1-.41-1.91,4.29,4.29,0,0,1,.5-2.05,4.58,4.58,0,0,1,1.41-1.57,6.81,6.81,0,0,1,2.17-1,10.26,10.26,0,0,1,2.8-.36,14.41,14.41,0,0,1,2.5.22,10.72,10.72,0,0,1,2.29.62v-1.47a4.69,4.69,0,0,0-1.24-3.42,4.41,4.41,0,0,0-3.33-1.27,7.24,7.24,0,0,0-2.61.5,13.11,13.11,0,0,0-2.65,1.44l-.75-1.41a14.05,14.05,0,0,1,3.1-1.59,9.15,9.15,0,0,1,3.13-.53,6.43,6.43,0,0,1,4.72,1.72,6.33,6.33,0,0,1,1.75,4.75v7.35c0,.59.25.88.75.88v1.87a4,4,0,0,1-.47,0l-.37,0a1.88,1.88,0,0,1-1.14-.38,1.43,1.43,0,0,1-.58-1.12l-.06-1.29a7.13,7.13,0,0,1-2.8,2.24A8.39,8.39,0,0,1,341,164.25Zm.53-1.63a6.87,6.87,0,0,0,2.8-.61,5.44,5.44,0,0,0,2.2-1.67,3,3,0,0,0,.38-.61,1.5,1.5,0,0,0,.16-.61v-2.66a13.33,13.33,0,0,0-2.23-.63,12.6,12.6,0,0,0-2.25-.22,6.63,6.63,0,0,0-3.7.93,2.88,2.88,0,0,0-1.43,2.55,3.6,3.6,0,0,0,.25,1.28,3.39,3.39,0,0,0,.77,1.13,4.07,4.07,0,0,0,1.27.81A4.57,4.57,0,0,0,341.55,162.62Z"></path><path class="cls-3" d="M360.45,164.25a4.53,4.53,0,0,1-3.88-1.77,8.82,8.82,0,0,1-1.31-5.27v-9.57h2.13v9.19c0,3.7,1.26,5.54,3.78,5.54a5.61,5.61,0,0,0,1.85-.31,5.78,5.78,0,0,0,1.67-.91,7.14,7.14,0,0,0,2.36-3.25V147.64h2.13v13.54c0,.59.26.88.78.88v1.87a5.94,5.94,0,0,1-.87.1,1.88,1.88,0,0,1-1.24-.44,1.38,1.38,0,0,1-.51-1.09v-2.26a7.81,7.81,0,0,1-6.89,4Z"></path><path class="cls-3" d="M383.71,149.51A6.8,6.8,0,0,0,380,150.7a6,6,0,0,0-2.25,3.1v10.13h-2.13V147.64h2v3.91a8.59,8.59,0,0,1,2.23-2.86,4.5,4.5,0,0,1,3-1.15h.53a1.58,1.58,0,0,1,.41,0Z"></path><path class="cls-3" d="M394.08,164.25a4.52,4.52,0,0,1-3.88-1.77,8.75,8.75,0,0,1-1.32-5.27v-9.57H391v9.19c0,3.7,1.26,5.54,3.78,5.54a5.57,5.57,0,0,0,1.85-.31,5.66,5.66,0,0,0,1.67-.91,6.84,6.84,0,0,0,1.38-1.41,7.2,7.2,0,0,0,1-1.84V147.64h2.12v13.54c0,.59.26.88.78.88v1.87a5.81,5.81,0,0,1-.87.1,1.88,1.88,0,0,1-1.24-.44,1.38,1.38,0,0,1-.51-1.09v-2.26a7.8,7.8,0,0,1-6.88,4Z"></path><path class="cls-3" d="M414.67,164.25a11.27,11.27,0,0,1-3.72-.63,8.91,8.91,0,0,1-3.13-1.81l1-1.44a10.78,10.78,0,0,0,2.8,1.69,8.31,8.31,0,0,0,3.05.56,5.43,5.43,0,0,0,3.14-.8,2.58,2.58,0,0,0,1.18-2.26,2,2,0,0,0-.32-1.15,2.7,2.7,0,0,0-.92-.79,7,7,0,0,0-1.53-.61c-.62-.18-1.33-.36-2.15-.55s-1.75-.46-2.44-.69a7.74,7.74,0,0,1-1.7-.78,2.78,2.78,0,0,1-1-1.08,3.49,3.49,0,0,1-.33-1.61,4.67,4.67,0,0,1,.48-2.16,4.51,4.51,0,0,1,1.32-1.55,6.11,6.11,0,0,1,1.94-.92,8.63,8.63,0,0,1,2.36-.31,9.08,9.08,0,0,1,3.41.61,6.67,6.67,0,0,1,2.47,1.61l-1,1.25a5.67,5.67,0,0,0-2.21-1.41,7.9,7.9,0,0,0-2.7-.47,7,7,0,0,0-1.57.17,3.8,3.8,0,0,0-1.26.55,2.61,2.61,0,0,0-.86,1,2.83,2.83,0,0,0-.32,1.37,2.32,2.32,0,0,0,.22,1.06,1.87,1.87,0,0,0,.72.7,5.45,5.45,0,0,0,1.27.53c.51.16,1.13.32,1.86.49,1,.25,2,.5,2.75.75a8.23,8.23,0,0,1,2,.88,3.41,3.41,0,0,1,1.2,1.22,3.51,3.51,0,0,1,.41,1.75,4.22,4.22,0,0,1-1.72,3.56A7.42,7.42,0,0,1,414.67,164.25Z"></path><path class="cls-3" d="M452.24,160.71a9.4,9.4,0,0,1-7.1,3.38,8.9,8.9,0,0,1-4.15-1,10.78,10.78,0,0,1-3.28-2.56,12.1,12.1,0,0,1-2.18-3.62,11.35,11.35,0,0,1-.78-4.14,12,12,0,0,1,.77-4.26,11.78,11.78,0,0,1,2.12-3.58,10.46,10.46,0,0,1,3.26-2.47,9.31,9.31,0,0,1,4.11-.92,11.38,11.38,0,0,1,3,.36,9,9,0,0,1,2.37,1,8,8,0,0,1,1.83,1.53,9.62,9.62,0,0,1,1.32,2l-1.69,1.12a7.23,7.23,0,0,0-2.85-3,8,8,0,0,0-4-1,7.05,7.05,0,0,0-3.33.78,8.12,8.12,0,0,0-2.54,2.08,9.9,9.9,0,0,0-1.61,3,11,11,0,0,0-.56,3.46,10,10,0,0,0,.64,3.57,9.5,9.5,0,0,0,1.77,2.95,8.53,8.53,0,0,0,2.64,2,7.33,7.33,0,0,0,3.3.75,7.85,7.85,0,0,0,3.63-.89,11.21,11.21,0,0,0,3.32-2.8v-3.72h-4.92V153h6.79v10.91h-1.87Z"></path><path class="cls-3" d="M468.83,149.51a6.74,6.74,0,0,0-3.75,1.19,6,6,0,0,0-2.26,3.1v10.13H460.7V147.64h2v3.91a8.44,8.44,0,0,1,2.22-2.86,4.54,4.54,0,0,1,3-1.15h.53a1.53,1.53,0,0,1,.41,0Z"></path><path class="cls-3" d="M479.54,164.25a8,8,0,0,1-3.27-.67,7.88,7.88,0,0,1-2.56-1.83,8.49,8.49,0,0,1-1.68-2.69,9,9,0,0,1-.59-3.23,8.65,8.65,0,0,1,.61-3.25,8.4,8.4,0,0,1,1.69-2.69A8.2,8.2,0,0,1,476.3,148a8.06,8.06,0,0,1,6.48,0,8.2,8.2,0,0,1,2.56,1.85,8.83,8.83,0,0,1,1.69,9.17,8.69,8.69,0,0,1-1.69,2.69,8,8,0,0,1-2.56,1.83A7.89,7.89,0,0,1,479.54,164.25Zm-5.91-8.39a7,7,0,0,0,.45,2.55,6.66,6.66,0,0,0,1.25,2.07,5.72,5.72,0,0,0,1.88,1.39,5.47,5.47,0,0,0,2.3.5,5.2,5.2,0,0,0,2.3-.52,6,6,0,0,0,1.89-1.4,6.78,6.78,0,0,0,1.28-2.08,7.21,7.21,0,0,0,0-5.12,6.6,6.6,0,0,0-1.28-2.09,6,6,0,0,0-1.88-1.41,5.08,5.08,0,0,0-2.28-.52,5.2,5.2,0,0,0-2.3.52,5.92,5.92,0,0,0-1.88,1.42,7.08,7.08,0,0,0-1.26,2.11A7,7,0,0,0,473.63,155.86Z"></path><path class="cls-3" d="M496.81,164.25a4.53,4.53,0,0,1-3.88-1.77,8.82,8.82,0,0,1-1.31-5.27v-9.57h2.13v9.19c0,3.7,1.26,5.54,3.78,5.54a5.61,5.61,0,0,0,1.85-.31,5.78,5.78,0,0,0,1.67-.91,7.14,7.14,0,0,0,2.36-3.25V147.64h2.13v13.54c0,.59.26.88.78.88v1.87a6,6,0,0,1-.88.1,1.84,1.84,0,0,1-1.23-.44,1.39,1.39,0,0,1-.52-1.09v-2.26a7.8,7.8,0,0,1-6.88,4Z"></path><path class="cls-3" d="M520.28,164.25a6.54,6.54,0,0,1-3.66-1.05,8.27,8.27,0,0,1-2.56-2.64v10h-2.13v-23h1.91v3.16a7.94,7.94,0,0,1,2.6-2.49,6.59,6.59,0,0,1,3.47-.95,6.92,6.92,0,0,1,3.11.7,7.83,7.83,0,0,1,2.46,1.88,8.92,8.92,0,0,1,1.61,2.7,9,9,0,0,1,.58,3.16,9.78,9.78,0,0,1-.54,3.26,8.44,8.44,0,0,1-1.51,2.69,7.36,7.36,0,0,1-2.35,1.83A6.76,6.76,0,0,1,520.28,164.25Zm-.59-1.88a5.09,5.09,0,0,0,2.38-.56,6,6,0,0,0,1.83-1.49,6.59,6.59,0,0,0,1.17-2.09,7.42,7.42,0,0,0,.41-2.43,6.81,6.81,0,0,0-.47-2.5,7,7,0,0,0-1.29-2.1,6.21,6.21,0,0,0-1.92-1.44,5.53,5.53,0,0,0-2.39-.53,4.74,4.74,0,0,0-1.69.33,7.15,7.15,0,0,0-1.66.88,5.78,5.78,0,0,0-1.33,1.28,3.48,3.48,0,0,0-.67,1.55v5a7.56,7.56,0,0,0,1,1.63,7.06,7.06,0,0,0,1.32,1.3,6.44,6.44,0,0,0,1.59.86A5.12,5.12,0,0,0,519.69,162.37Z"></path><path class="cls-3" d="M538.89,152.67a11.8,11.8,0,0,1,.7-4,11.08,11.08,0,0,1,2-3.56,10.41,10.41,0,0,1,3.32-2.54,9.8,9.8,0,0,1,4.47-1A9.18,9.18,0,0,1,554.5,143a8.35,8.35,0,0,1,3.12,3.5l-1.75,1.06a6.62,6.62,0,0,0-1.28-1.84,7,7,0,0,0-3.44-1.9,9.1,9.1,0,0,0-1.85-.2,7.44,7.44,0,0,0-3.53.81,8.37,8.37,0,0,0-2.58,2.13,9.18,9.18,0,0,0-1.58,3,10.54,10.54,0,0,0-.53,3.33,9.77,9.77,0,0,0,.64,3.53,10,10,0,0,0,1.75,3,8.53,8.53,0,0,0,2.63,2.07,7.21,7.21,0,0,0,3.3.76,8.67,8.67,0,0,0,1.92-.23,7.74,7.74,0,0,0,1.91-.75,8,8,0,0,0,1.7-1.29,6.57,6.57,0,0,0,1.32-1.86l1.81.94a6.66,6.66,0,0,1-1.5,2.21,10.3,10.3,0,0,1-2.16,1.61,10.6,10.6,0,0,1-2.52,1,10.28,10.28,0,0,1-2.61.34,8.85,8.85,0,0,1-4.19-1,11,11,0,0,1-3.28-2.61,12.15,12.15,0,0,1-2.91-7.84Z"></path><path class="cls-3" d="M570.81,164.25a7.8,7.8,0,0,1-5.83-2.5,8.49,8.49,0,0,1-1.68-2.69,9,9,0,0,1-.59-3.23,8.65,8.65,0,0,1,.61-3.25,8.4,8.4,0,0,1,1.69-2.69,8.2,8.2,0,0,1,2.56-1.85,8.06,8.06,0,0,1,6.48,0,8.2,8.2,0,0,1,2.56,1.85,8.4,8.4,0,0,1,1.69,2.69,8.91,8.91,0,0,1,0,6.48,8.51,8.51,0,0,1-1.69,2.69,8,8,0,0,1-2.56,1.83A7.89,7.89,0,0,1,570.81,164.25Zm-5.91-8.39a7,7,0,0,0,.45,2.55,6.66,6.66,0,0,0,1.25,2.07,5.72,5.72,0,0,0,1.88,1.39,5.47,5.47,0,0,0,2.3.5,5.2,5.2,0,0,0,2.3-.52,6,6,0,0,0,1.89-1.4,6.86,6.86,0,0,0,1.75-4.65,6.87,6.87,0,0,0-.47-2.55,6.6,6.6,0,0,0-1.28-2.09,6,6,0,0,0-1.88-1.41,5.08,5.08,0,0,0-2.28-.52,5.2,5.2,0,0,0-2.3.52,5.92,5.92,0,0,0-1.88,1.42,7.08,7.08,0,0,0-1.26,2.11A7,7,0,0,0,564.9,155.86Z"></path><path class="cls-3" d="M607.29,163.93h-2.13v-9.1a7.68,7.68,0,0,0-.89-4.19,3,3,0,0,0-2.7-1.34,4.54,4.54,0,0,0-1.77.34,5.28,5.28,0,0,0-1.53,1,6.63,6.63,0,0,0-1.24,1.48,6.85,6.85,0,0,0-.81,1.9v9.94h-2.13v-9.1a7.74,7.74,0,0,0-.88-4.22,3,3,0,0,0-2.69-1.31,4.76,4.76,0,0,0-3.28,1.28,7.13,7.13,0,0,0-2.07,3.38v10h-2.12V147.64H585v3.69a7.7,7.7,0,0,1,2.62-2.93,6.6,6.6,0,0,1,3.6-1,4.71,4.71,0,0,1,3.32,1.15,4.94,4.94,0,0,1,1.5,3c1.52-2.8,3.63-4.19,6.32-4.19a4.85,4.85,0,0,1,2.3.5,4,4,0,0,1,1.53,1.42,6.71,6.71,0,0,1,.84,2.22,14.27,14.27,0,0,1,.27,2.89Z"></path><path class="cls-3" d="M620.71,164.25a6.54,6.54,0,0,1-3.66-1.05,8.27,8.27,0,0,1-2.56-2.64v10h-2.13v-23h1.91v3.16a7.94,7.94,0,0,1,2.6-2.49,6.59,6.59,0,0,1,3.47-.95,6.92,6.92,0,0,1,3.11.7,7.83,7.83,0,0,1,2.46,1.88,8.92,8.92,0,0,1,1.61,2.7,9,9,0,0,1,.58,3.16,9.78,9.78,0,0,1-.54,3.26,8.44,8.44,0,0,1-1.51,2.69,7.36,7.36,0,0,1-2.35,1.83A6.76,6.76,0,0,1,620.71,164.25Zm-.59-1.88a5.06,5.06,0,0,0,2.38-.56,6,6,0,0,0,1.83-1.49,6.59,6.59,0,0,0,1.17-2.09,7.42,7.42,0,0,0,.41-2.43,6.81,6.81,0,0,0-.47-2.5,7.21,7.21,0,0,0-1.28-2.1,6.37,6.37,0,0,0-1.93-1.44,5.53,5.53,0,0,0-2.39-.53,4.78,4.78,0,0,0-1.69.33,7.15,7.15,0,0,0-1.66.88,5.78,5.78,0,0,0-1.33,1.28,3.48,3.48,0,0,0-.67,1.55v5a7.56,7.56,0,0,0,1,1.63,7.06,7.06,0,0,0,1.32,1.3,6.44,6.44,0,0,0,1.59.86A5.12,5.12,0,0,0,620.12,162.37Z"></path><path class="cls-3" d="M637.49,164.25a6.42,6.42,0,0,1-2.28-.39,5.26,5.26,0,0,1-1.77-1.08,4.88,4.88,0,0,1-1.14-1.6,4.62,4.62,0,0,1-.41-1.91,4.29,4.29,0,0,1,.5-2.05,4.68,4.68,0,0,1,1.41-1.57,6.81,6.81,0,0,1,2.17-1,10.26,10.26,0,0,1,2.8-.36,14.52,14.52,0,0,1,2.51.22,10.79,10.79,0,0,1,2.28.62v-1.47a4.65,4.65,0,0,0-1.24-3.42A4.41,4.41,0,0,0,639,149a7.32,7.32,0,0,0-2.61.5,12.79,12.79,0,0,0-2.64,1.44l-.75-1.41a13.78,13.78,0,0,1,3.09-1.59,9.19,9.19,0,0,1,3.13-.53,6.42,6.42,0,0,1,4.72,1.72,6.34,6.34,0,0,1,1.76,4.75v7.35c0,.59.25.88.75.88v1.87a4.45,4.45,0,0,1-.47,0l-.38,0a1.9,1.9,0,0,1-1.14-.38,1.46,1.46,0,0,1-.58-1.12l-.06-1.29a7.06,7.06,0,0,1-2.8,2.24A8.39,8.39,0,0,1,637.49,164.25Zm.53-1.63a6.87,6.87,0,0,0,2.8-.61,5.47,5.47,0,0,0,2.21-1.67,3.42,3.42,0,0,0,.37-.61,1.35,1.35,0,0,0,.16-.61v-2.66a13.49,13.49,0,0,0-2.22-.63,12.6,12.6,0,0,0-2.25-.22,6.67,6.67,0,0,0-3.71.93,2.87,2.87,0,0,0-1.42,2.55,3.39,3.39,0,0,0,.25,1.28,3.22,3.22,0,0,0,.76,1.13,4.19,4.19,0,0,0,1.27.81A4.57,4.57,0,0,0,638,162.62Z"></path><path class="cls-3" d="M665.59,163.93h-2.12v-9.1a8.06,8.06,0,0,0-.85-4.22A2.89,2.89,0,0,0,660,149.3a5.36,5.36,0,0,0-1.87.34,6.6,6.6,0,0,0-1.76,1,7.13,7.13,0,0,0-1.42,1.48A6.65,6.65,0,0,0,654,154v10h-2.13V147.64h1.94v3.69a7.61,7.61,0,0,1,1.24-1.61,8,8,0,0,1,3.56-2.08,7.78,7.78,0,0,1,2.11-.28,4.69,4.69,0,0,1,2.3.5,3.93,3.93,0,0,1,1.49,1.4,6.53,6.53,0,0,1,.81,2.22,15.4,15.4,0,0,1,.25,2.91Z"></path><path class="cls-3" d="M672.2,169l.32.05h.31a4.06,4.06,0,0,0,.67-.06,3.15,3.15,0,0,0,.52-.12,1.06,1.06,0,0,0,.33-.27,4.45,4.45,0,0,0,.43-.72c.18-.34.4-.82.68-1.44s.61-1.44,1-2.49l-7.1-16.29h2.22l6,14.32,5.56-14.32h2l-8.48,21a3.79,3.79,0,0,1-1.27,1.72,3.85,3.85,0,0,1-2.23.56,5.78,5.78,0,0,1-1.07-.09Z"></path><path class="cls-3" d="M725.4,162H704.74V142.6l-7.16-2.11v20.18c0,2.5.53,4.21,1.59,5.11s3.08,1.35,6.08,1.35h19.64c3.06,0,5.13-.45,6.22-1.37s1.64-2.61,1.64-5.09V140.49l-7.35,2.11Z"></path><path class="cls-3" d="M740.84,123.16c-14.45,11.38-32.32,14.09-39.91,6.05-3.28-3.47-4.44-5.91-3.14-11.3-2.36,6.46-1.9,12.52,1.94,16.6,7.59,8,25.46,5.33,39.91-6,8.19-6.46,13.53-14.31,15.23-21.37C752.57,113.37,748,117.55,740.84,123.16Z"></path></g></g></svg>